<svg width="37" height="36" viewBox="0 0 37 36" fill="none" xmlns="http://www.w3.org/2000/svg">
<path d="M18.5 0C8.27912 0 0 8.25877 0 18.4553C0 26.6218 5.29544 33.5195 12.6496 35.9647C13.5746 36.1262 13.9209 35.5726 13.9209 35.0881C13.9209 34.6498 13.8979 33.1965 13.8979 31.6508C9.25 32.5044 8.0475 30.5204 7.6775 29.4823C7.46956 28.9517 6.5675 27.3139 5.78088 26.8756C5.13375 26.5295 4.20875 25.6759 5.75794 25.6529C7.215 25.6298 8.25544 26.9909 8.6025 27.5445C10.2675 30.3359 12.9271 29.5515 13.9904 29.0671C14.1525 27.8675 14.6379 27.0601 15.17 26.5987C11.0541 26.1373 6.7525 24.5455 6.7525 17.4864C6.7525 15.4793 7.46956 13.8184 8.64912 12.5265C8.46412 12.0651 7.81588 10.1735 8.83412 7.6359C8.83412 7.6359 10.3829 7.15142 13.9209 9.52751C15.4009 9.11234 16.9741 8.90471 18.5466 8.90471C20.1191 8.90471 21.6916 9.11234 23.1716 9.52751C26.7096 7.12836 28.2591 7.6359 28.2591 7.6359C29.2759 10.1735 28.6291 12.0651 28.4441 12.5265C29.6229 13.8184 30.34 15.4563 30.34 17.4864C30.34 24.5686 26.0154 26.1373 21.8996 26.5987C22.57 27.1755 23.1479 28.2827 23.1479 30.0129C23.1479 32.4813 23.125 34.4652 23.125 35.0881C23.125 35.5726 23.4721 36.1493 24.3971 35.9647C28.0697 34.7283 31.2613 32.3737 33.522 29.2326C35.7827 26.0916 36.9993 22.3222 37 18.4553C37 8.25877 28.7209 0 18.5 0Z" fill="white"/>
</svg>
