<svg width="165" height="165" viewBox="0 0 165 165" fill="none" xmlns="http://www.w3.org/2000/svg">
<g clip-path="url(#clip0_23_335)">
<rect width="165" height="165" rx="82.5" fill="#F3F5FD"/>
<g clip-path="url(#clip1_23_335)">
<path d="M326.543 240.821C322.563 251.971 312.203 261.705 297.148 270H-106.334C-119.543 261.973 -128.279 252.585 -131.077 241.827C-139.261 210.413 -132.557 145.537 -80.9924 119.358C0.0175323 78.2334 -31.6663 -11.2136 100.448 -19.5866C232.563 -27.9597 220.82 60.3336 283 102.5C333.991 137.082 338.956 206.082 326.543 240.821Z" fill="#F3F5FD"/>
<path d="M74.7939 87.175C74.8082 86.9256 74.8082 86.6762 74.8082 86.4262C74.8082 83.904 74.7075 81.1596 74.4506 78.1658L77.6831 77.5851L97.2997 74.0648C96.9132 78.9865 96.9946 83.9321 97.5429 88.8393C97.6001 89.3935 97.6716 89.9622 97.758 90.5302C97.7616 90.5818 97.771 90.6329 97.786 90.6826C97.9004 91.4311 98.0291 92.1797 98.1722 92.9283C98.258 93.4134 98.3583 93.8983 98.4732 94.383C98.5876 95.0071 98.7443 95.6167 98.9165 96.2263C99.0888 96.8359 99.2598 97.431 99.4601 98.0286C99.6466 98.6243 99.8468 99.2068 100.076 99.7755C100.493 100.898 101.001 101.987 101.592 103.033V103.046C102.676 105.098 104.198 106.903 106.057 108.341H70.1132C72.3618 104.583 74.6789 98.0828 74.7939 87.175Z" fill="#F2F2F2"/>
<path opacity="0.15" d="M101.617 103.066L82.6268 88.9929L97.5421 88.8429C98.1111 93.7053 99.2852 98.9243 101.617 103.066Z" fill="black"/>
<path d="M61.4755 66.8513C63.0581 75.7063 68.046 84.0901 76.1091 86.9502C85.6808 90.3452 92.77 90.5753 103.806 90.5753C118.866 90.5753 118.368 75.3617 118.793 60.0306C119.218 44.6381 117.954 28.1275 112.002 22.7639C100.122 12.0579 65.2533 18.8377 61.0097 36.7445C58.8158 46.0061 59.9693 58.4235 61.4755 66.8513Z" fill="#F2F2F2"/>
<path d="M126.862 31.6623C126.862 31.6623 133.03 30.328 131.34 24.3735C130.22 20.4225 124.997 21.3014 124.997 21.3014C124.997 21.3014 129.945 20.4243 129.945 16.2414C129.945 13.6042 127.854 9.13939 121.544 11.6917C114.144 14.6873 105.699 14.3024 99.2815 13.2578C95.5373 12.6482 91.8857 11.7983 88.2541 11.7519L88.2348 11.7477V11.7519C83.9703 11.68 79.719 12.2309 75.6241 13.3861C64.1488 16.7113 46.7821 26.6782 50.4735 49.2734C54.5946 74.4907 66.8104 84.1341 72.1852 87.2279C72.5031 87.4134 72.8604 87.5264 73.23 87.5586C73.5996 87.5907 73.972 87.5411 74.3189 87.4135C74.6658 87.2858 74.9783 87.0835 75.2327 86.8218C75.4872 86.5601 75.6769 86.2458 75.7876 85.9027C77.3118 81.1765 79.941 69.2849 79.2035 44.764C114.476 43.0882 124.624 42.5798 124.624 42.5798C124.624 42.5798 132.929 42.8809 132.929 37.0054C132.929 31.1298 126.862 31.6623 126.862 31.6623Z" fill="#0F1011"/>
<path d="M97.2723 60.0306C96.1276 60.0306 95.1996 59.1317 95.1996 58.0229C95.1996 56.914 96.1276 56.0151 97.2723 56.0151C98.417 56.0151 99.345 56.914 99.345 58.0229C99.345 59.1317 98.417 60.0306 97.2723 60.0306Z" fill="#0F1011"/>
<path d="M113.629 58.7313C112.484 58.7313 111.556 57.8324 111.556 56.7235C111.556 55.6147 112.484 54.7158 113.629 54.7158C114.773 54.7158 115.701 55.6147 115.701 56.7235C115.701 57.8324 114.773 58.7313 113.629 58.7313Z" fill="#0F1011"/>
<path d="M117.222 52.4436H117.209L111.716 52.3774C111.458 52.3758 111.211 52.2749 111.029 52.0968C110.848 51.9188 110.747 51.6782 110.749 51.428C110.75 51.1779 110.854 50.9386 111.038 50.7628C111.222 50.587 111.47 50.4891 111.729 50.4907H111.741L117.234 50.557C117.362 50.5578 117.488 50.583 117.606 50.6311C117.724 50.6792 117.831 50.7494 117.921 50.8376C118.102 51.0156 118.203 51.2562 118.202 51.5063C118.2 51.7565 118.096 51.9958 117.912 52.1716C117.728 52.3474 117.48 52.4452 117.222 52.4436Z" fill="#0F1011"/>
<path d="M92.7942 54.3833C92.5557 54.3832 92.3256 54.2984 92.1474 54.1449C91.9692 53.9913 91.8553 53.7798 91.8274 53.5504C91.7995 53.3209 91.8595 53.0895 91.9959 52.9001C92.1324 52.7106 92.3359 52.5763 92.5679 52.5225L97.9824 51.2575C98.233 51.2009 98.4965 51.2426 98.7155 51.3734C98.9345 51.5043 99.0911 51.7137 99.1513 51.956C99.2115 52.1983 99.1703 52.4539 99.0367 52.6669C98.9031 52.8799 98.688 53.033 98.4383 53.093L93.0237 54.358C92.9485 54.3749 92.8715 54.3834 92.7942 54.3833Z" fill="#0F1011"/>
<path d="M86.4873 62.9371C86.6778 65.1875 85.9376 67.419 84.4296 69.1407C82.9216 70.8625 80.7692 71.9334 78.446 72.1179C76.1228 72.3024 73.8192 71.5855 72.0417 70.1247C70.2643 68.6639 69.1587 66.579 68.9682 64.3286C68.5715 59.6421 72.1578 55.3008 77.0095 55.1472C83.2735 54.9496 86.0906 58.2488 86.4873 62.9371Z" fill="#F2F2F2"/>
<g opacity="0.15">
<path opacity="0.15" d="M106.475 69.1615C106.304 69.1618 106.138 69.1025 106.008 68.9942C105.878 68.8859 105.792 68.7359 105.766 68.5716C105.741 68.4073 105.777 68.2396 105.869 68.0991C105.96 67.9585 106.101 67.8546 106.265 67.8061L110.482 66.552L107.532 60.1902C107.455 60.0225 107.449 59.8317 107.516 59.6597C107.584 59.4878 107.719 59.3488 107.892 59.2734C108.065 59.198 108.262 59.1923 108.44 59.2576C108.617 59.3229 108.76 59.4539 108.838 59.6216L112.12 66.6995C112.162 66.7892 112.183 66.8864 112.183 66.9848C112.183 67.0831 112.161 67.1803 112.119 67.2699C112.077 67.3594 112.016 67.4394 111.94 67.5043C111.864 67.5692 111.774 67.6177 111.677 67.6465L106.686 69.1313C106.618 69.1516 106.547 69.1618 106.475 69.1615Z" fill="black"/>
</g>
<path d="M98.2319 73.8389C98.2319 73.8389 105.884 74.622 111.249 72.8052C111.249 72.8052 111.206 77.6845 105.15 78.1664C99.0938 78.6483 98.2319 73.8389 98.2319 73.8389Z" fill="#F8FCFF"/>
<path d="M32.419 230.797C29.8507 244.664 26.2066 258.681 23.8311 270H150.274C148.539 257.868 145.461 242.586 143.701 225.304C142.744 216.22 142.306 207.092 142.389 197.962C142.507 187.661 144.093 176.367 145.436 165.313C149.118 135.092 150.989 106.653 116.233 105.202C116.14 105.196 116.041 105.196 115.935 105.19H115.928L115.474 105.172C114.659 105.148 113.589 105.129 112.302 105.111C112.275 105.108 112.248 105.108 112.221 105.111C112.153 105.105 112.091 105.105 112.022 105.105C111.935 106.894 109.187 108.262 105.008 109.208C104.983 109.214 104.952 109.22 104.921 109.226C96.0466 111.213 80.8483 111.31 71.0851 109.497C70.9918 109.485 70.9048 109.467 70.8115 109.448C67.7333 108.858 65.2147 108.075 63.6476 107.099C63.3757 106.933 63.1178 106.745 62.8765 106.539C62.3573 106.134 62.0062 105.56 61.8878 104.925C61.4711 104.925 61.0607 104.931 60.6502 104.937C59.4874 104.961 58.3432 105.009 57.2238 105.093C45.5826 105.913 36.0805 109.756 30.2972 115.358C14.8066 130.363 23.0339 152.639 29.6878 174.553C31.9327 181.914 33.9911 189.233 34.9114 196.227V196.233C35.0855 197.534 35.2161 198.823 35.3032 200.1C35.3778 201.239 35.4213 202.371 35.4213 203.492C35.4226 211.915 34.1726 221.322 32.419 230.797Z" fill="#B6BBCF"/>
<path d="M112.289 104.122C111.916 111.745 107.639 122.957 94.4323 123.803C76.8336 124.925 63.1838 111.717 62.1534 103.942H67.1737C73.5222 103.942 102.05 104.015 107.616 104.066C109.371 104.083 110.941 104.101 112.289 104.122Z" fill="#F2F2F2"/>
<path d="M25.249 231.544C24.0053 243.441 22.6745 256.453 21.2939 270H84.985C85.0161 268.488 85.0347 266.982 85.0596 265.488C85.0969 262.729 85.1301 259.999 85.1591 257.296C85.2773 246.134 85.2835 235.424 85.1218 225.322C85.0783 222.39 85.0202 219.511 84.9477 216.684C84.9104 215.382 84.8731 214.093 84.8358 212.816C84.8358 212.756 84.8358 212.69 84.8295 212.63C84.6368 206.479 84.3652 200.616 84.0149 195.04C83.8076 191.884 83.5754 188.832 83.3184 185.884C83.194 184.438 83.0593 183.021 82.9142 181.631C80.9864 162.705 75.6757 134.14 72.3985 117.436C71.7891 114.31 71.2481 111.599 70.8128 109.448C70.7319 109.063 70.6573 108.689 70.5889 108.34C70.5454 108.129 70.5018 107.93 70.4645 107.738V107.732C69.9919 105.413 69.7121 104.057 69.6872 103.949V103.943C69.6872 103.943 67.2682 103.78 63.5557 103.804C62.654 103.804 61.6714 103.822 60.6267 103.858C59.6006 103.889 58.5186 103.937 57.3868 104.003C51.0314 104.395 43.2954 105.437 36.9275 107.997C22.177 113.93 16.7419 147.23 11.1576 169.463C11.1452 169.505 11.1389 169.548 11.1265 169.59L26.331 221.171C25.9828 224.515 25.6221 227.972 25.249 231.544Z" fill="white"/>
<path d="M69.6741 103.853C69.6741 103.853 84.8966 160.605 84.8966 218.997L58.5664 137.375L67.0361 127.07L55.1623 118.938L57.3942 103.981C61.2509 103.22 69.6741 103.853 69.6741 103.853Z" fill="#F3F5FD"/>
<path d="M102.664 182.475C102.664 184.173 102.677 186.27 102.696 188.721C102.739 192.649 102.807 197.492 102.901 203.088C102.963 207.16 103.044 211.624 103.137 216.437V216.443C103.156 217.4 103.174 218.37 103.193 219.358C103.212 220.286 103.23 221.232 103.249 222.183C103.46 233.02 103.722 245.303 104.014 258.422C104.076 261.169 104.138 263.95 104.2 266.765C104.225 267.838 104.25 268.916 104.275 270H157.219C155.248 252.989 153.388 238.526 151.74 226.478C148.532 202.968 146.138 188.649 145.36 182.475L163.755 172.819L164.271 172.547C164.271 172.547 148.059 115.153 134.49 107.997C128.57 104.876 120.461 104.431 115.623 104.22H115.604C115.554 104.22 115.498 104.214 115.449 104.214C109.547 103.955 105.325 103.943 105.325 103.943C105.325 103.943 105.325 103.979 105.319 104.051C105.294 104.407 105.219 105.617 105.101 107.545V107.551C105.088 107.798 105.07 108.063 105.051 108.34C105.032 108.617 105.02 108.906 105.008 109.208C104.84 111.997 104.634 115.798 104.398 120.358V120.364C104.243 123.502 104.081 127.002 103.913 130.779C103.826 132.839 103.733 134.989 103.652 137.206C103.646 137.212 103.646 137.212 103.652 137.218C103.416 143.151 103.198 149.579 103.024 156.253V156.259C102.987 157.771 102.949 159.295 102.912 160.831C102.758 167.942 102.664 175.252 102.664 182.475Z" fill="white"/>
<path d="M105.316 103.853C105.316 103.853 100.279 167.203 103.063 216.802L119.063 137.375L111.388 128.155L121.012 121.107L115.594 104.132L105.316 103.853Z" fill="#F3F5FD"/>
<path d="M12.4268 232.785C10.0155 232.785 7.63712 232.243 5.47845 231.202C3.31978 230.161 1.43956 228.65 -0.0145111 226.787C-1.46859 224.923 -2.45695 222.759 -2.90197 220.463C-3.34699 218.168 -3.23656 215.803 -2.57935 213.556L12.2558 164.961L40.3938 177.491L33.7336 200.265L96.9147 193.699L100.242 223.746L14.0928 232.697C13.5395 232.756 12.9833 232.785 12.4268 232.785Z" fill="white"/>
<path d="M162.277 227.852C161.495 227.852 160.714 227.795 159.941 227.681L62.9276 213.457L67.5959 183.579L138.543 193.979L129.785 170.884L160.414 159.986L176.918 207.532C177.784 209.815 178.068 212.268 177.745 214.68C177.423 217.093 176.504 219.395 175.067 221.389C173.629 223.384 171.716 225.013 169.489 226.139C167.262 227.264 164.788 227.851 162.277 227.852Z" fill="white"/>
<path d="M61.4978 139.008L60.6191 103.652L63.5499 103.608L64.5648 138.864L61.4978 139.008Z" fill="#A6A6A6"/>
<path d="M116.098 126.637L115.447 104.212L112.289 104.122L112.628 126.672C108.997 127.112 105.657 128.821 103.233 131.476C100.81 134.132 99.4695 137.553 99.4637 141.097V158.502H102.931V141.097C102.919 139.621 103.21 138.157 103.785 136.79C104.361 135.423 105.21 134.179 106.284 133.132C107.358 132.084 108.635 131.252 110.042 130.685C111.449 130.117 112.958 129.825 114.483 129.825C116.007 129.825 117.516 130.117 118.923 130.685C120.33 131.252 121.607 132.084 122.681 133.132C123.755 134.179 124.604 135.423 125.18 136.79C125.755 138.157 126.046 139.621 126.035 141.097V158.502H129.501V141.097C129.496 137.512 128.126 134.054 125.653 131.386C123.18 128.717 119.778 127.027 116.098 126.637Z" fill="#A6A6A6"/>
<path d="M62.9275 148.024C59.217 148.024 56.2089 145.11 56.2089 141.516C56.2089 137.922 59.217 135.008 62.9275 135.008C66.6381 135.008 69.6461 137.922 69.6461 141.516C69.6461 145.11 66.6381 148.024 62.9275 148.024Z" fill="#A6A6A6"/>
<path d="M101.162 161.384C99.5191 161.384 98.1871 160.094 98.1871 158.502C98.1871 156.911 99.5191 155.621 101.162 155.621C102.805 155.621 104.137 156.911 104.137 158.502C104.137 160.094 102.805 161.384 101.162 161.384Z" fill="#A6A6A6"/>
<path d="M127.668 161.384C126.025 161.384 124.693 160.094 124.693 158.502C124.693 156.911 126.025 155.621 127.668 155.621C129.311 155.621 130.643 156.911 130.643 158.502C130.643 160.094 129.311 161.384 127.668 161.384Z" fill="#A6A6A6"/>
<path d="M187.894 112.414C208.823 112.414 225.789 95.9798 225.789 75.7071C225.789 55.4343 208.823 39 187.894 39C166.966 39 150 55.4343 150 75.7071C150 95.9798 166.966 112.414 187.894 112.414Z" fill="#F3F5FD"/>
</g>
</g>
<defs>
<clipPath id="clip0_23_335">
<rect width="165" height="165" rx="82.5" fill="white"/>
</clipPath>
<clipPath id="clip1_23_335">
<rect width="464" height="290" fill="white" transform="translate(-134 -20)"/>
</clipPath>
</defs>
</svg>
